<svg width="120" height="45" viewBox="0 0 120 45" fill="none" xmlns="http://www.w3.org/2000/svg">
<path d="M0.40625 39.5137C0.341146 39.3509 0.308594 38.765 0.308594 37.7559C0.308594 36.7467 0.308594 35.4772 0.308594 33.9473C0.341146 32.4173 0.373698 30.7083 0.40625 28.8203C0.471354 26.8997 0.520182 24.9629 0.552734 23.0098C0.617839 21.0241 0.682943 19.1035 0.748047 17.248C0.813151 15.36 0.861979 13.6836 0.894531 12.2188C0.959635 10.7539 1.00846 9.56576 1.04102 8.6543C1.07357 7.71029 1.10612 7.20573 1.13867 7.14062C1.17122 7.01042 1.31771 6.6849 1.57812 6.16406C1.83854 5.64323 2.13151 5.10612 2.45703 4.55273C2.8151 3.9668 3.17318 3.46224 3.53125 3.03906C3.88932 2.58333 4.19857 2.37174 4.45898 2.4043C4.55664 2.43685 4.63802 3.08789 4.70312 4.35742C4.80078 5.5944 4.88216 7.18945 4.94727 9.14258C5.04492 11.0957 5.11003 13.2604 5.14258 15.6367C5.20768 17.9805 5.25651 20.2754 5.28906 22.5215C5.35417 24.735 5.40299 26.7533 5.43555 28.5762C5.4681 30.3665 5.50065 31.6849 5.5332 32.5312C6.57487 32.6289 7.61654 32.7103 8.6582 32.7754C9.73242 32.8405 10.6927 32.9219 11.5391 33.0195C12.3854 33.0846 13.069 33.1497 13.5898 33.2148C14.1432 33.2799 14.4362 33.3288 14.4688 33.3613C14.5664 33.4915 14.6966 33.8008 14.8594 34.2891C15.0547 34.7448 15.2337 35.2493 15.3965 35.8027C15.5592 36.3236 15.6732 36.8118 15.7383 37.2676C15.8359 37.7233 15.8197 38 15.6895 38.0977C11.946 38.7812 9.04883 39.237 6.99805 39.4648C4.94727 39.6927 3.43359 39.8066 2.45703 39.8066C1.31771 39.8066 0.634115 39.709 0.40625 39.5137ZM26.2363 11.291C26.4642 11.4863 26.6758 11.8607 26.8711 12.4141C27.099 12.9674 27.2943 13.6348 27.457 14.416C27.6198 15.1973 27.7663 16.0436 27.8965 16.9551C28.0267 17.8665 28.1406 18.7617 28.2383 19.6406C28.3359 20.5195 28.401 21.3496 28.4336 22.1309C28.4987 22.8796 28.5475 23.498 28.5801 23.9863C28.6126 24.5723 28.6289 25.1908 28.6289 25.8418C28.6615 26.4603 28.6615 27.0625 28.6289 27.6484C28.6289 28.2018 28.5964 28.7064 28.5312 29.1621C28.4987 29.6178 28.4336 29.9596 28.3359 30.1875C28.1406 30.6758 27.7988 31.0176 27.3105 31.2129C26.8548 31.3757 26.334 31.4896 25.748 31.5547C25.4551 31.5872 24.9505 31.6035 24.2344 31.6035C23.5508 31.571 22.8021 31.5384 21.9883 31.5059C21.207 31.4408 20.4583 31.3757 19.7422 31.3105C19.026 31.2454 18.4889 31.1803 18.1309 31.1152C17.4147 30.9525 16.8939 30.7409 16.5684 30.4805C16.2754 30.2201 15.9824 29.8457 15.6895 29.3574C15.5918 29.1621 15.5104 28.6738 15.4453 27.8926C15.3802 27.0788 15.3314 26.1185 15.2988 25.0117C15.2988 23.8724 15.3151 22.6517 15.3477 21.3496C15.3802 20.0475 15.429 18.8105 15.4941 17.6387C15.5918 16.4668 15.6895 15.4414 15.7871 14.5625C15.9173 13.6836 16.0801 13.0977 16.2754 12.8047C16.6009 12.349 17.1543 11.9258 17.9355 11.5352C18.7493 11.1445 19.4818 10.8353 20.1328 10.6074C20.4583 10.5098 20.8815 10.4447 21.4023 10.4121C21.9557 10.347 22.5254 10.347 23.1113 10.4121C23.7298 10.4447 24.3158 10.5423 24.8691 10.7051C25.4225 10.8353 25.8783 11.0306 26.2363 11.291ZM23.502 26.4277C23.5671 26.2975 23.6322 25.9069 23.6973 25.2559C23.7949 24.5723 23.86 23.7585 23.8926 22.8145C23.9577 21.8704 23.9902 20.8613 23.9902 19.7871C24.0228 18.7129 24.0391 17.7201 24.0391 16.8086C24.0391 15.8971 24.0065 15.1322 23.9414 14.5137C23.8763 13.8626 23.7949 13.4883 23.6973 13.3906C23.5345 13.2604 23.2904 13.2116 22.9648 13.2441C22.6719 13.2441 22.3626 13.293 22.0371 13.3906C21.7116 13.4557 21.4186 13.5534 21.1582 13.6836C20.8978 13.7812 20.7188 13.8789 20.6211 13.9766C20.1979 14.3346 19.9701 14.9206 19.9375 15.7344C19.9375 15.9622 19.9049 16.6133 19.8398 17.6875C19.8073 18.7292 19.791 19.8685 19.791 21.1055C19.791 22.3099 19.8073 23.4329 19.8398 24.4746C19.9049 25.5163 20.0189 26.151 20.1816 26.3789C20.3444 26.6068 20.5723 26.7858 20.8652 26.916C21.1908 27.0137 21.5163 27.0625 21.8418 27.0625C22.1999 27.0625 22.5254 27.0137 22.8184 26.916C23.1439 26.7858 23.3717 26.623 23.502 26.4277ZM43.5703 39.5625C43.5052 39.7578 43.3099 40.0671 42.9844 40.4902C42.6589 40.9134 42.2682 41.3529 41.8125 41.8086C41.3568 42.2643 40.901 42.6712 40.4453 43.0293C39.9896 43.3874 39.6152 43.6152 39.3223 43.7129C38.6712 43.9082 37.9714 43.8594 37.2227 43.5664C36.5065 43.306 35.8066 42.9479 35.123 42.4922C34.472 42.0365 33.9023 41.5645 33.4141 41.0762C32.9258 40.6204 32.6165 40.2786 32.4863 40.0508C32.3887 39.8229 32.291 39.5137 32.1934 39.123C32.1283 38.7324 32.0794 38.3418 32.0469 37.9512C32.0143 37.5605 32.0143 37.235 32.0469 36.9746C32.112 36.6816 32.2259 36.5352 32.3887 36.5352C32.5514 36.5352 32.9258 36.6979 33.5117 37.0234C34.1302 37.3164 34.765 37.6257 35.416 37.9512C36.0996 38.2767 36.7344 38.5371 37.3203 38.7324C37.9062 38.9277 38.2643 38.8952 38.3945 38.6348C38.5247 38.4069 38.6387 37.7721 38.7363 36.7305C38.8665 35.6562 39.013 34.3542 39.1758 32.8242C39.1107 32.8242 39.0456 32.8405 38.9805 32.873C38.9479 32.873 38.8991 32.873 38.834 32.873C38.541 32.9707 38.1341 33.0195 37.6133 33.0195C37.0924 33.0195 36.5391 32.987 35.9531 32.9219C35.3997 32.8568 34.8464 32.7428 34.293 32.5801C33.7721 32.3848 33.349 32.1406 33.0234 31.8477C32.8932 31.7174 32.7467 31.5221 32.584 31.2617C32.4538 30.9688 32.3561 30.5944 32.291 30.1387C32.1934 29.9434 32.0306 29.39 31.8027 28.4785C31.5749 27.5345 31.347 26.4766 31.1191 25.3047C30.8913 24.1003 30.6797 22.8958 30.4844 21.6914C30.3216 20.487 30.2728 19.5267 30.3379 18.8105C30.3704 18.0944 30.5007 17.362 30.7285 16.6133C30.9564 15.832 31.2168 15.0996 31.5098 14.416C31.8353 13.7324 32.1771 13.1465 32.5352 12.6582C32.8932 12.1374 33.2513 11.7793 33.6094 11.584C34.3906 11.1934 35.3672 11.112 36.5391 11.3398C37.7109 11.5677 38.9642 12.0072 40.2988 12.6582C40.3314 12.3327 40.4779 11.9746 40.7383 11.584C40.9987 11.1934 41.2917 10.8516 41.6172 10.5586C41.9753 10.2331 42.3333 10.0052 42.6914 9.875C43.0495 9.71224 43.3262 9.69596 43.5215 9.82617C43.6191 9.89128 43.7005 10.347 43.7656 11.1934C43.8307 12.0072 43.8796 13.0814 43.9121 14.416C43.9772 15.7181 44.0098 17.2155 44.0098 18.9082C44.0423 20.5684 44.0423 22.2936 44.0098 24.084C44.0098 25.8418 43.9935 27.5833 43.9609 29.3086C43.9609 31.0339 43.9284 32.6126 43.8633 34.0449C43.8307 35.4772 43.7819 36.6816 43.7168 37.6582C43.6842 38.6348 43.6354 39.2695 43.5703 39.5625ZM40.1523 16.3691C39.957 16.2389 39.7292 16.1087 39.4688 15.9785C39.2409 15.8483 38.9805 15.7181 38.6875 15.5879C38.3945 15.4577 38.069 15.3438 37.7109 15.2461C37.5482 15.181 37.3203 15.2461 37.0273 15.4414C36.7669 15.6367 36.4902 15.9134 36.1973 16.2715C35.9368 16.6296 35.709 17.069 35.5137 17.5898C35.3184 18.0781 35.2207 18.599 35.2207 19.1523C35.2207 19.2174 35.237 19.5267 35.2695 20.0801C35.3021 20.6335 35.3509 21.3008 35.416 22.082C35.4811 22.8633 35.5462 23.7096 35.6113 24.6211C35.6764 25.5326 35.7415 26.3789 35.8066 27.1602C35.9043 27.9414 35.9857 28.6087 36.0508 29.1621C36.1159 29.6829 36.1647 29.9596 36.1973 29.9922C36.3275 30.1224 36.5065 30.1875 36.7344 30.1875C36.9948 30.1875 37.2389 30.1549 37.4668 30.0898C37.7272 30.0247 37.9551 29.9434 38.1504 29.8457C38.3457 29.748 38.4922 29.6667 38.5898 29.6016C39.013 29.3086 39.2734 28.7389 39.3711 27.8926C39.4362 27.8275 39.4688 27.6484 39.4688 27.3555C39.5664 25.207 39.6641 23.2702 39.7617 21.5449C39.8594 19.7871 39.9896 18.0618 40.1523 16.3691ZM68.0332 21.6914C67.4473 22.0495 66.8613 22.3913 66.2754 22.7168C65.7871 22.9772 65.2663 23.2539 64.7129 23.5469C64.1921 23.8398 63.7526 24.0677 63.3945 24.2305C63.3294 27.6159 63.248 30.2201 63.1504 32.043C63.0853 33.8659 63.0365 35.2005 63.0039 36.0469C62.9388 37.056 62.8737 37.6257 62.8086 37.7559C62.7435 37.7559 62.5482 37.6257 62.2227 37.3652C61.8971 37.0723 61.5391 36.7305 61.1484 36.3398C60.7904 35.9492 60.4486 35.5586 60.123 35.168C59.8301 34.7773 59.651 34.4844 59.5859 34.2891C59.5534 33.8659 59.472 32.6452 59.3418 30.627C59.2767 29.748 59.2116 28.6576 59.1465 27.3555C59.0814 26.0534 59 24.4746 58.9023 22.6191C58.8047 20.7637 58.6908 18.5827 58.5605 16.0762C58.4629 13.5697 58.349 10.6888 58.2188 7.43359C57.6328 7.40104 57.1445 7.38477 56.7539 7.38477C56.3958 7.38477 56.1191 7.40104 55.9238 7.43359C55.7285 7.43359 55.582 7.43359 55.4844 7.43359C55.3867 7.40104 55.3053 7.31966 55.2402 7.18945C55.11 6.92904 55.0124 6.48958 54.9473 5.87109C54.8822 5.22005 54.8496 4.60156 54.8496 4.01562C54.8496 3.36458 54.931 2.71354 55.0938 2.0625C55.2891 1.41146 55.5169 1.00456 55.7773 0.841797C55.875 0.776693 56.1191 0.760417 56.5098 0.792969C56.9329 0.825521 57.4212 0.890625 57.9746 0.988281C58.528 1.08594 59.1302 1.19987 59.7812 1.33008C60.4323 1.46029 61.0508 1.59049 61.6367 1.7207C62.2227 1.85091 62.7272 1.98112 63.1504 2.11133C63.6061 2.20898 63.9316 2.27409 64.127 2.30664C64.4525 2.37174 65.0547 2.56706 65.9336 2.89258C66.8125 3.18555 67.7402 3.5599 68.7168 4.01562C69.7259 4.4388 70.6699 4.91081 71.5488 5.43164C72.4603 5.91992 73.1276 6.4082 73.5508 6.89648C73.7135 7.0918 73.86 7.64518 73.9902 8.55664C74.153 9.4681 74.2669 10.4609 74.332 11.5352C74.4297 12.5768 74.4622 13.5859 74.4297 14.5625C74.4297 15.5065 74.3483 16.125 74.1855 16.418C74.0553 16.6133 73.8112 16.9225 73.4531 17.3457C73.0951 17.7689 72.6393 18.2409 72.0859 18.7617C71.5651 19.25 70.9629 19.7546 70.2793 20.2754C69.5957 20.7962 68.847 21.2682 68.0332 21.6914ZM63.541 20.666C63.834 20.5033 64.1921 20.194 64.6152 19.7383C65.071 19.25 65.543 18.7129 66.0312 18.127C66.5195 17.5085 67.0078 16.8737 67.4961 16.2227C67.9844 15.5391 68.4238 14.9043 68.8145 14.3184C69.2376 13.7324 69.5632 13.2279 69.791 12.8047C70.0514 12.349 70.1816 12.056 70.1816 11.9258C70.1816 11.7305 70.0352 11.4863 69.7422 11.1934C69.4492 10.8678 69.026 10.5423 68.4727 10.2168C67.9518 9.89128 67.3008 9.58203 66.5195 9.28906C65.7708 8.96354 64.9408 8.68685 64.0293 8.45898L63.541 20.666ZM81.1191 17.0039C81.1842 17.1667 81.2168 17.6875 81.2168 18.5664C81.2493 19.4128 81.2493 20.4544 81.2168 21.6914C81.2168 22.8958 81.1842 24.1979 81.1191 25.5977C81.054 26.9648 80.9727 28.2669 80.875 29.5039C80.8099 30.7083 80.7285 31.75 80.6309 32.6289C80.5332 33.4753 80.4355 33.9798 80.3379 34.1426C80.0449 34.5983 79.6055 34.8913 79.0195 35.0215C78.4336 35.1191 78.0104 35.1354 77.75 35.0703C77.6198 35.0703 77.4733 34.696 77.3105 33.9473C77.1803 33.1986 77.0501 32.2546 76.9199 31.1152C76.7897 29.9759 76.6758 28.7389 76.5781 27.4043C76.4805 26.0697 76.3991 24.8001 76.334 23.5957C76.2689 22.3587 76.2363 21.2845 76.2363 20.373C76.2363 19.4616 76.2689 18.8757 76.334 18.6152C76.4316 18.1921 76.7083 17.8177 77.1641 17.4922C77.6523 17.1667 78.1569 16.9225 78.6777 16.7598C79.2311 16.597 79.7357 16.5319 80.1914 16.5645C80.6797 16.5645 80.9889 16.7109 81.1191 17.0039ZM81.3633 9.09375C81.4935 9.35417 81.5423 9.71224 81.5098 10.168C81.5098 10.6237 81.4609 11.0957 81.3633 11.584C81.2656 12.0723 81.1354 12.5443 80.9727 13C80.8099 13.4557 80.6471 13.8138 80.4844 14.0742C80.1589 14.5299 79.6706 14.8229 79.0195 14.9531C78.401 15.0508 77.9453 15.0671 77.6523 15.002C77.4245 14.9694 77.1966 14.8229 76.9688 14.5625C76.7409 14.2695 76.5456 13.9277 76.3828 13.5371C76.2201 13.1139 76.1061 12.6582 76.041 12.1699C75.9759 11.6816 75.9922 11.2259 76.0898 10.8027C76.1875 10.3796 76.4967 10.0052 77.0176 9.67969C77.5384 9.32161 78.0918 9.0612 78.6777 8.89844C79.2637 8.70312 79.8171 8.62174 80.3379 8.6543C80.8587 8.6543 81.2005 8.80078 81.3633 9.09375ZM88.9805 37.707C88.7526 37.7721 88.4922 37.6908 88.1992 37.4629C87.9062 37.235 87.6133 36.9583 87.3203 36.6328C87.0599 36.2747 86.832 35.9004 86.6367 35.5098C86.4414 35.1191 86.3112 34.7936 86.2461 34.5332C86.0182 31.6686 85.8229 29.1133 85.6602 26.8672C85.5299 24.5885 85.416 22.5703 85.3184 20.8125C85.2207 19.0547 85.1393 17.541 85.0742 16.2715C85.0417 14.9694 85.0254 13.8626 85.0254 12.9512C84.9928 10.8353 85.0254 9.37044 85.123 8.55664C85.2207 7.9707 85.4811 7.38477 85.9043 6.79883C86.36 6.21289 86.832 5.70833 87.3203 5.28516C87.8411 4.86198 88.3132 4.53646 88.7363 4.30859C89.1921 4.08073 89.485 4.01562 89.6152 4.11328C89.7454 4.21094 89.8431 4.76432 89.9082 5.77344C89.9733 6.75 90.0221 8.03581 90.0547 9.63086C90.0872 11.2259 90.0872 13.0163 90.0547 15.002C90.0547 16.9876 90.0221 19.0221 89.957 21.1055C89.9245 23.1888 89.8757 25.2233 89.8105 27.209C89.7454 29.1947 89.6641 30.9688 89.5664 32.5312C89.4688 34.0612 89.3711 35.2982 89.2734 36.2422C89.1758 37.1862 89.0781 37.6745 88.9805 37.707ZM104.215 11.291C104.443 11.4863 104.654 11.8607 104.85 12.4141C105.077 12.9674 105.273 13.6348 105.436 14.416C105.598 15.1973 105.745 16.0436 105.875 16.9551C106.005 17.8665 106.119 18.7617 106.217 19.6406C106.314 20.5195 106.38 21.3496 106.412 22.1309C106.477 22.8796 106.526 23.498 106.559 23.9863C106.591 24.5723 106.607 25.1908 106.607 25.8418C106.64 26.4603 106.64 27.0625 106.607 27.6484C106.607 28.2018 106.575 28.7064 106.51 29.1621C106.477 29.6178 106.412 29.9596 106.314 30.1875C106.119 30.6758 105.777 31.0176 105.289 31.2129C104.833 31.3757 104.312 31.4896 103.727 31.5547C103.434 31.5872 102.929 31.6035 102.213 31.6035C101.529 31.571 100.781 31.5384 99.9668 31.5059C99.1855 31.4408 98.4368 31.3757 97.7207 31.3105C97.0046 31.2454 96.4674 31.1803 96.1094 31.1152C95.3932 30.9525 94.8724 30.7409 94.5469 30.4805C94.2539 30.2201 93.9609 29.8457 93.668 29.3574C93.5703 29.1621 93.4889 28.6738 93.4238 27.8926C93.3587 27.0788 93.3099 26.1185 93.2773 25.0117C93.2773 23.8724 93.2936 22.6517 93.3262 21.3496C93.3587 20.0475 93.4076 18.8105 93.4727 17.6387C93.5703 16.4668 93.668 15.4414 93.7656 14.5625C93.8958 13.6836 94.0586 13.0977 94.2539 12.8047C94.5794 12.349 95.1328 11.9258 95.9141 11.5352C96.7279 11.1445 97.4603 10.8353 98.1113 10.6074C98.4368 10.5098 98.86 10.4447 99.3809 10.4121C99.9342 10.347 100.504 10.347 101.09 10.4121C101.708 10.4447 102.294 10.5423 102.848 10.7051C103.401 10.8353 103.857 11.0306 104.215 11.291ZM101.48 26.4277C101.546 26.2975 101.611 25.9069 101.676 25.2559C101.773 24.5723 101.839 23.7585 101.871 22.8145C101.936 21.8704 101.969 20.8613 101.969 19.7871C102.001 18.7129 102.018 17.7201 102.018 16.8086C102.018 15.8971 101.985 15.1322 101.92 14.5137C101.855 13.8626 101.773 13.4883 101.676 13.3906C101.513 13.2604 101.269 13.2116 100.943 13.2441C100.65 13.2441 100.341 13.293 100.016 13.3906C99.6901 13.4557 99.3971 13.5534 99.1367 13.6836C98.8763 13.7812 98.6973 13.8789 98.5996 13.9766C98.1764 14.3346 97.9486 14.9206 97.916 15.7344C97.916 15.9622 97.8835 16.6133 97.8184 17.6875C97.7858 18.7292 97.7695 19.8685 97.7695 21.1055C97.7695 22.3099 97.7858 23.4329 97.8184 24.4746C97.8835 25.5163 97.9974 26.151 98.1602 26.3789C98.3229 26.6068 98.5508 26.7858 98.8438 26.916C99.1693 27.0137 99.4948 27.0625 99.8203 27.0625C100.178 27.0625 100.504 27.0137 100.797 26.916C101.122 26.7858 101.35 26.623 101.48 26.4277ZM119.645 12.9023C119.677 13 119.677 13.2767 119.645 13.7324C119.612 14.1556 119.547 14.6439 119.449 15.1973C119.384 15.7181 119.303 16.2064 119.205 16.6621C119.107 17.0853 119.026 17.3457 118.961 17.4434C118.635 17.4759 118.31 17.4922 117.984 17.4922C117.659 17.4596 117.35 17.4434 117.057 17.4434H116.031C115.999 19.5918 115.95 21.724 115.885 23.8398C115.82 25.9557 115.738 27.86 115.641 29.5527C115.543 31.2129 115.429 32.5638 115.299 33.6055C115.201 34.6471 115.104 35.1842 115.006 35.2168C114.778 35.2493 114.518 35.1517 114.225 34.9238C113.932 34.696 113.639 34.4193 113.346 34.0938C113.085 33.7357 112.841 33.3776 112.613 33.0195C112.418 32.6289 112.304 32.2871 112.271 31.9941C112.109 30.0085 111.962 28.1204 111.832 26.3301C111.702 24.5072 111.604 22.8958 111.539 21.4961C111.409 19.8685 111.327 18.3548 111.295 16.9551C110.937 16.9225 110.579 16.8737 110.221 16.8086C109.895 16.7435 109.553 16.6784 109.195 16.6133C108.87 16.5482 108.528 16.4831 108.17 16.418C108.105 16.3529 108.023 16.2064 107.926 15.9785C107.828 15.7181 107.73 15.4414 107.633 15.1484C107.568 14.8555 107.503 14.5788 107.438 14.3184C107.372 14.0254 107.34 13.8138 107.34 13.6836C107.34 13.5859 107.698 13.4883 108.414 13.3906C109.163 13.293 110.074 13.2116 111.148 13.1465C111.083 11.4212 111.035 9.92383 111.002 8.6543C111.002 7.35221 111.051 6.47331 111.148 6.01758C111.246 5.39909 111.507 4.81315 111.93 4.25977C112.385 3.67383 112.857 3.16927 113.346 2.74609C113.867 2.32292 114.339 2.01367 114.762 1.81836C115.217 1.59049 115.51 1.52539 115.641 1.62305C115.738 1.68815 115.82 2.02995 115.885 2.64844C115.95 3.23438 115.999 4.0319 116.031 5.04102C116.064 6.05013 116.08 7.23828 116.08 8.60547C116.08 9.9401 116.08 11.3561 116.08 12.8535C117.057 12.7884 117.887 12.7721 118.57 12.8047C119.254 12.8047 119.612 12.8372 119.645 12.9023Z" fill="url(#paint0_linear_38_4)"/>
<defs>
<linearGradient id="paint0_linear_38_4" x1="-126" y1="-10" x2="53.711" y2="221.757" gradientUnits="userSpaceOnUse">
<stop stop-color="#E6964D"/>
<stop offset="0.927083" stop-color="#ED9F2A" stop-opacity="0.536458"/>
<stop offset="1" stop-color="#700B0B" stop-opacity="0.5"/>
<stop offset="1" stop-color="#BB7D33" stop-opacity="0.6"/>
</linearGradient>
</defs>
</svg>
