<svg width="24" height="24" viewBox="0 0 24 24" fill="none" xmlns="http://www.w3.org/2000/svg">
<path d="M19.5301 6.40999C19.8191 6.68321 19.9877 7.06001 19.999 7.45757C20.0102 7.85512 19.8631 8.24086 19.5901 8.52999L11.0901 17.53C10.9523 17.6756 10.7868 17.7921 10.6032 17.8726C10.4197 17.9532 10.2218 17.9961 10.0214 17.9989C9.82097 18.0017 9.62201 17.9643 9.43629 17.8889C9.25056 17.8135 9.08183 17.7017 8.94006 17.56L4.44006 13.06C4.1751 12.7756 4.03085 12.3995 4.03771 12.0109C4.04457 11.6223 4.20199 11.2516 4.47682 10.9767C4.75164 10.7019 5.12241 10.5445 5.51101 10.5376C5.89962 10.5308 6.27571 10.675 6.56006 10.94L9.97006 14.348L17.4101 6.46999C17.6833 6.18098 18.0601 6.01231 18.4576 6.00106C18.8552 5.98981 19.2409 6.1369 19.5301 6.40999Z" fill="#7AC82D"/>
</svg>
