<svg width="20" height="20" viewBox="0 0 20 20" fill="none" xmlns="http://www.w3.org/2000/svg">
<path d="M15.8333 2.49999L10.8333 7.49999L12.5 9.16666L18.3333 3.33332V2.49999M10 10.4167C9.8895 10.4167 9.78352 10.3728 9.70538 10.2946C9.62724 10.2165 9.58334 10.1105 9.58334 9.99999C9.58334 9.88948 9.62724 9.7835 9.70538 9.70536C9.78352 9.62722 9.8895 9.58332 10 9.58332C10.1105 9.58332 10.2165 9.62722 10.2946 9.70536C10.3728 9.7835 10.4167 9.88948 10.4167 9.99999C10.4167 10.1105 10.3728 10.2165 10.2946 10.2946C10.2165 10.3728 10.1105 10.4167 10 10.4167ZM5.00001 16.6667C4.55798 16.6667 4.13405 16.4911 3.82149 16.1785C3.50893 15.8659 3.33334 15.442 3.33334 15C3.33334 14.558 3.50893 14.134 3.82149 13.8215C4.13405 13.5089 4.55798 13.3333 5.00001 13.3333C5.44203 13.3333 5.86596 13.5089 6.17852 13.8215C6.49108 14.134 6.66667 14.558 6.66667 15C6.66667 15.442 6.49108 15.8659 6.17852 16.1785C5.86596 16.4911 5.44203 16.6667 5.00001 16.6667ZM5.00001 6.66666C4.55798 6.66666 4.13405 6.49106 3.82149 6.1785C3.50893 5.86594 3.33334 5.44202 3.33334 4.99999C3.33334 4.55796 3.50893 4.13404 3.82149 3.82148C4.13405 3.50892 4.55798 3.33332 5.00001 3.33332C5.44203 3.33332 5.86596 3.50892 6.17852 3.82148C6.49108 4.13404 6.66667 4.55796 6.66667 4.99999C6.66667 5.44202 6.49108 5.86594 6.17852 6.1785C5.86596 6.49106 5.44203 6.66666 5.00001 6.66666ZM8.03334 6.36666C8.22501 5.94999 8.33334 5.49166 8.33334 4.99999C8.33334 4.11593 7.98215 3.26809 7.35703 2.64297C6.73191 2.01785 5.88406 1.66666 5.00001 1.66666C4.11595 1.66666 3.2681 2.01785 2.64298 2.64297C2.01786 3.26809 1.66667 4.11593 1.66667 4.99999C1.66667 5.88404 2.01786 6.73189 2.64298 7.35701C3.2681 7.98213 4.11595 8.33332 5.00001 8.33332C5.49167 8.33332 5.95 8.22499 6.36667 8.03332L8.33334 9.99999L6.36667 11.9667C5.95 11.775 5.49167 11.6667 5.00001 11.6667C4.11595 11.6667 3.2681 12.0178 2.64298 12.643C2.01786 13.2681 1.66667 14.1159 1.66667 15C1.66667 15.884 2.01786 16.7319 2.64298 17.357C3.2681 17.9821 4.11595 18.3333 5.00001 18.3333C5.88406 18.3333 6.73191 17.9821 7.35703 17.357C7.98215 16.7319 8.33334 15.884 8.33334 15C8.33334 14.5083 8.22501 14.05 8.03334 13.6333L10 11.6667L15.8333 17.5H18.3333V16.6667L8.03334 6.36666Z" fill="#9B9B9B"/>
</svg>
