<svg width="15" height="15" viewBox="0 0 15 15" fill="none" xmlns="http://www.w3.org/2000/svg">
<g clip-path="url(#clip0_111_56)">
<path d="M11.6621 1.34952C11.7912 1.21297 11.9464 1.10369 12.1186 1.02816C12.2907 0.952622 12.4762 0.912357 12.6641 0.909743C12.8521 0.907129 13.0386 0.94222 13.2128 1.01294C13.3869 1.08366 13.5452 1.18858 13.6781 1.32149C13.811 1.4544 13.9159 1.6126 13.9866 1.78675C14.0573 1.96091 14.0924 2.14747 14.0898 2.33541C14.0872 2.52336 14.0469 2.70887 13.9714 2.88099C13.8959 3.0531 13.7866 3.20833 13.65 3.33749L9.52972 7.45781C9.52426 7.46325 9.51993 7.46971 9.51698 7.47683C9.51402 7.48395 9.5125 7.49158 9.5125 7.49929C9.5125 7.507 9.51402 7.51463 9.51698 7.52175C9.51993 7.52887 9.52426 7.53533 9.52972 7.54077L13.65 11.6611C13.7824 11.7913 13.8876 11.9464 13.9597 12.1174C14.0318 12.2885 14.0694 12.4721 14.0701 12.6577C14.0709 12.8434 14.0349 13.0273 13.9643 13.199C13.8936 13.3706 13.7896 13.5266 13.6584 13.6579C13.5271 13.7892 13.3712 13.8932 13.1996 13.9639C13.0279 14.0346 12.844 14.0706 12.6583 14.0699C12.4727 14.0691 12.2891 14.0317 12.118 13.9596C11.9469 13.8875 11.7918 13.7823 11.6616 13.65L7.54128 9.52968C7.53584 9.52423 7.52937 9.5199 7.52225 9.51694C7.51513 9.51399 7.5075 9.51247 7.49979 9.51247C7.49209 9.51247 7.48446 9.51399 7.47734 9.51694C7.47022 9.5199 7.46375 9.52423 7.45831 9.52968L3.338 13.65C3.20782 13.7823 3.05273 13.8876 2.88167 13.9597C2.71062 14.0318 2.52697 14.0693 2.34134 14.0701C2.15571 14.0709 1.97176 14.0349 1.8001 13.9642C1.62844 13.8936 1.47248 13.7896 1.3412 13.6584C1.20992 13.5271 1.10592 13.3712 1.03521 13.1995C0.964503 13.0279 0.928476 12.8439 0.92921 12.6583C0.929944 12.4727 0.967425 12.289 1.03949 12.118C1.11156 11.9469 1.21678 11.7918 1.34909 11.6616L5.4694 7.54124C5.47486 7.5358 5.47919 7.52934 5.48214 7.52222C5.4851 7.5151 5.48662 7.50747 5.48662 7.49976C5.48662 7.49205 5.4851 7.48442 5.48214 7.4773C5.47919 7.47018 5.47486 7.46372 5.4694 7.45827L1.34909 3.33796C1.08889 3.07354 0.943703 2.71702 0.94517 2.34604C0.946636 1.97507 1.09463 1.6197 1.35692 1.35735C1.61921 1.095 1.97454 0.946921 2.34552 0.945367C2.71649 0.943812 3.07305 1.08891 3.33753 1.34906L7.45784 5.46937C7.46328 5.47482 7.46975 5.47915 7.47687 5.48211C7.48399 5.48506 7.49162 5.48658 7.49933 5.48658C7.50703 5.48658 7.51466 5.48506 7.52178 5.48211C7.5289 5.47915 7.53537 5.47482 7.54081 5.46937L11.6611 1.34906L11.6621 1.34952Z" fill="#BD2E2E"/>
</g>
<defs>
<clipPath id="clip0_111_56">
<rect width="15" height="15" fill="white"/>
</clipPath>
</defs>
</svg>
