<svg width="21" height="21" viewBox="0 0 21 21" fill="none" xmlns="http://www.w3.org/2000/svg">
<path d="M18.7782 11.3188C18.6202 11.1422 18.5331 10.9151 18.5331 10.68C18.5331 10.4449 18.6202 10.2178 18.7782 10.0412L20.0394 8.64748C20.1783 8.4952 20.2646 8.3036 20.2859 8.10015C20.3071 7.89671 20.2622 7.69189 20.1576 7.51507L18.187 4.16625C18.0835 3.98963 17.9258 3.84963 17.7365 3.76621C17.5472 3.68279 17.3359 3.6602 17.1327 3.70167L15.2804 4.06946C15.0447 4.1173 14.7993 4.07874 14.5906 3.96106C14.3818 3.84338 14.2241 3.65471 14.1473 3.43067L13.5463 1.65947C13.4802 1.46723 13.3542 1.30026 13.1863 1.18215C13.0183 1.06405 12.8168 1.00079 12.6102 1.00132H8.66903C8.45417 0.9903 8.24154 1.04867 8.06362 1.16751C7.88571 1.28636 7.75228 1.45914 7.68373 1.65947L7.13196 3.43067C7.05511 3.65471 6.89743 3.84338 6.68869 3.96106C6.47994 4.07874 6.23457 4.1173 5.99887 4.06946L4.09724 3.70167C3.90466 3.67494 3.70834 3.70479 3.533 3.78746C3.35767 3.87013 3.21116 4.00193 3.11194 4.16625L1.14134 7.51507C1.0341 7.68992 0.985884 7.89359 1.00358 8.09698C1.02128 8.30036 1.10398 8.49304 1.23987 8.64748L2.4912 10.0412C2.64916 10.2178 2.73628 10.4449 2.73628 10.68C2.73628 10.9151 2.64916 11.1422 2.4912 11.3188L1.23987 12.7125C1.10398 12.867 1.02128 13.0596 1.00358 13.263C0.985884 13.4664 1.0341 13.6701 1.14134 13.8449L3.11194 17.1938C3.21549 17.3704 3.37316 17.5104 3.56247 17.5938C3.75178 17.6772 3.96306 17.6998 4.16621 17.6583L6.01857 17.2905C6.25427 17.2427 6.49965 17.2813 6.70839 17.3989C6.91714 17.5166 7.07481 17.7053 7.15167 17.9293L7.7527 19.7005C7.82125 19.9009 7.95468 20.0736 8.1326 20.1925C8.31051 20.3113 8.52314 20.3697 8.738 20.3587H12.6792C12.8858 20.3592 13.0873 20.2959 13.2552 20.1778C13.4232 20.0597 13.5491 19.8928 13.6152 19.7005L14.2163 17.9293C14.2931 17.7053 14.4508 17.5166 14.6595 17.3989C14.8683 17.2813 15.1137 17.2427 15.3494 17.2905L17.2017 17.6583C17.4049 17.6998 17.6161 17.6772 17.8055 17.5938C17.9948 17.5104 18.1524 17.3704 18.256 17.1938L20.2266 13.8449C20.3312 13.6681 20.3761 13.4633 20.3549 13.2598C20.3336 13.0564 20.2473 12.8648 20.1083 12.7125L18.7782 11.3188ZM17.3101 12.6157L18.0983 13.4868L16.8372 15.6355L15.6745 15.4032C14.9649 15.2607 14.2267 15.3791 13.6 15.736C12.9734 16.0928 12.502 16.6632 12.2752 17.3389L11.9008 18.4229H9.37844L9.02373 17.3196C8.79697 16.6439 8.32553 16.0734 7.6989 15.7166C7.07228 15.3598 6.33408 15.2413 5.62445 15.3838L4.4618 15.6161L3.18091 13.4771L3.96915 12.6061C4.45387 12.0737 4.72185 11.3845 4.72185 10.6703C4.72185 9.9561 4.45387 9.26693 3.96915 8.73458L3.18091 7.8635L4.44209 5.73419L5.60475 5.96648C6.31438 6.10897 7.05257 5.99056 7.6792 5.63373C8.30583 5.27689 8.77727 4.70647 9.00403 4.03074L9.37844 2.93705H11.9008L12.2752 4.04042C12.502 4.71615 12.9734 5.28657 13.6 5.6434C14.2267 6.00024 14.9649 6.11865 15.6745 5.97616L16.8372 5.74387L18.0983 7.89254L17.3101 8.76362C16.8308 9.29475 16.5662 9.97992 16.5662 10.6897C16.5662 11.3994 16.8308 12.0846 17.3101 12.6157ZM10.6396 6.80853C9.86013 6.80853 9.09814 7.03558 8.45001 7.46099C7.80189 7.88639 7.29673 8.49103 6.99843 9.19845C6.70013 9.90587 6.62208 10.6843 6.77416 11.4353C6.92623 12.1863 7.30159 12.8761 7.85278 13.4175C8.40396 13.959 9.10622 14.3277 9.87073 14.4771C10.6353 14.6265 11.4277 14.5498 12.1479 14.2568C12.868 13.9638 13.4835 13.4675 13.9166 12.8309C14.3497 12.1942 14.5808 11.4457 14.5808 10.68C14.5808 9.65322 14.1656 8.6685 13.4265 7.94245C12.6874 7.21641 11.6849 6.80853 10.6396 6.80853ZM10.6396 12.6157C10.2499 12.6157 9.86888 12.5022 9.54482 12.2895C9.22075 12.0768 8.96818 11.7745 8.81903 11.4208C8.66988 11.0671 8.63085 10.6779 8.70689 10.3024C8.78293 9.92686 8.97061 9.58195 9.2462 9.31123C9.52179 9.04051 9.87292 8.85615 10.2552 8.78146C10.6374 8.70677 11.0337 8.7451 11.3937 8.89161C11.7538 9.03812 12.0616 9.28623 12.2781 9.60456C12.4946 9.92289 12.6102 10.2971 12.6102 10.68C12.6102 11.1934 12.4026 11.6858 12.033 12.0488C11.6635 12.4118 11.1623 12.6157 10.6396 12.6157Z" fill="#9B9B9B" stroke="#9B9B9B"/>
</svg>
